<?xml version="1.0" encoding="UTF-8" standalone="no"?><svg xmlns="http://www.w3.org/2000/svg" xmlns:xlink="http://www.w3.org/1999/xlink" contentScriptType="application/ecmascript" contentStyleType="text/css" height="875px" preserveAspectRatio="none" style="width:867px;height:875px;background:#FFFFFF;" version="1.1" viewBox="0 0 867 875" width="867px" zoomAndPan="magnify"><defs><filter height="300%" id="fpv03wm8sauoc" width="300%" x="-1" y="-1"><feGaussianBlur result="blurOut" stdDeviation="2.0"/><feColorMatrix in="blurOut" result="blurOut2" type="matrix" values="0 0 0 0 0 0 0 0 0 0 0 0 0 0 0 0 0 0 .4 0"/><feOffset dx="4.0" dy="4.0" in="blurOut2" result="blurOut3"/><feBlend in="SourceGraphic" in2="blurOut3" mode="normal"/></filter></defs><g><!--MD5=[2f57a51b86a77cde2ad024e995f83ff3]
class Sport--><rect codeLine="2" fill="#FEFECE" filter="url(#fpv03wm8sauoc)" height="60.9551" id="Sport" style="stroke:#A80036;stroke-width:1.5;" width="93" x="7" y="259"/><ellipse cx="35.95" cy="275" fill="#ADD1B2" rx="11" ry="11" style="stroke:#A80036;stroke-width:1.0;"/><path d="M38.4231,281.1431 Q37.8421,281.4419 37.2029,281.5913 Q36.5638,281.7407 35.8582,281.7407 Q33.3514,281.7407 32.0315,280.0889 Q30.7117,278.437 30.7117,275.3159 Q30.7117,272.1865 32.0315,270.5347 Q33.3514,268.8828 35.8582,268.8828 Q36.5638,268.8828 37.2112,269.0322 Q37.8587,269.1816 38.4231,269.4805 L38.4231,272.2031 Q37.7923,271.6221 37.1988,271.3523 Q36.6053,271.0825 35.9744,271.0825 Q34.6297,271.0825 33.9449,272.1492 Q33.2601,273.2158 33.2601,275.3159 Q33.2601,277.4077 33.9449,278.4744 Q34.6297,279.541 35.9744,279.541 Q36.6053,279.541 37.1988,279.2712 Q37.7923,279.0015 38.4231,278.4204 Z " fill="#000000"/><text fill="#000000" font-family="sans-serif" font-size="12" lengthAdjust="spacing" textLength="30" x="53.05" y="279.5352">Sport</text><line style="stroke:#A80036;stroke-width:1.5;" x1="8" x2="99" y1="291" y2="291"/><ellipse cx="18" cy="302" rx="3" ry="3" style="stroke:#038048;stroke-width:1.0;fill:none;"/><text fill="#000000" font-family="sans-serif" font-size="11" lengthAdjust="spacing" textLength="67" x="27" y="305.6348">name: String</text><line style="stroke:#A80036;stroke-width:1.5;" x1="8" x2="99" y1="311.9551" y2="311.9551"/><!--MD5=[7b57f7066b803747d2119f99dd1555d4]
class Profile--><rect codeLine="6" fill="#FEFECE" filter="url(#fpv03wm8sauoc)" height="297.1914" id="Profile" style="stroke:#A80036;stroke-width:1.5;" width="271" x="135" y="141"/><ellipse cx="248.25" cy="157" fill="#ADD1B2" rx="11" ry="11" style="stroke:#A80036;stroke-width:1.0;"/><path d="M250.7231,163.1431 Q250.1421,163.4419 249.5029,163.5913 Q248.8638,163.7407 248.1582,163.7407 Q245.6514,163.7407 244.3315,162.0889 Q243.0117,160.437 243.0117,157.3159 Q243.0117,154.1865 244.3315,152.5347 Q245.6514,150.8828 248.1582,150.8828 Q248.8638,150.8828 249.5112,151.0322 Q250.1587,151.1816 250.7231,151.4805 L250.7231,154.2031 Q250.0923,153.6221 249.4988,153.3523 Q248.9053,153.0825 248.2744,153.0825 Q246.9297,153.0825 246.2449,154.1492 Q245.5601,155.2158 245.5601,157.3159 Q245.5601,159.4077 246.2449,160.4744 Q246.9297,161.541 248.2744,161.541 Q248.9053,161.541 249.4988,161.2712 Q250.0923,161.0015 250.7231,160.4204 Z " fill="#000000"/><text fill="#000000" font-family="sans-serif" font-size="12" lengthAdjust="spacing" textLength="36" x="268.75" y="161.5352">Profile</text><line style="stroke:#A80036;stroke-width:1.5;" x1="136" x2="405" y1="173" y2="173"/><text fill="#000000" font-family="sans-serif" font-size="11" lengthAdjust="spacing" textLength="138" x="141" y="187.6348">Profile is a player's profile</text><text fill="#000000" font-family="sans-serif" font-size="11" lengthAdjust="spacing" textLength="101" x="141" y="200.5898">for a specific sport</text><line style="stroke:#A80036;stroke-width:1.0;" x1="136" x2="405" y1="206.9102" y2="206.9102"/><ellipse cx="146" cy="217.9102" rx="3" ry="3" style="stroke:#038048;stroke-width:1.0;fill:none;"/><text fill="#000000" font-family="sans-serif" font-size="11" lengthAdjust="spacing" textLength="64" x="155" y="221.5449">sport: Sport</text><ellipse cx="146" cy="230.8652" rx="3" ry="3" style="stroke:#038048;stroke-width:1.0;fill:none;"/><text fill="#000000" font-family="sans-serif" font-size="11" lengthAdjust="spacing" textLength="89" x="155" y="234.5">nickname: String</text><ellipse cx="146" cy="243.8203" rx="3" ry="3" style="stroke:#038048;stroke-width:1.0;fill:none;"/><text fill="#000000" font-family="sans-serif" font-size="11" lengthAdjust="spacing" textLength="71" x="155" y="247.4551">avatar: String</text><ellipse cx="146" cy="256.7754" rx="3" ry="3" style="stroke:#038048;stroke-width:1.0;fill:none;"/><text fill="#000000" font-family="sans-serif" font-size="11" lengthAdjust="spacing" textLength="68" x="155" y="260.4102">level: Integer</text><ellipse cx="146" cy="269.7305" rx="3" ry="3" style="stroke:#038048;stroke-width:1.0;fill:none;"/><text fill="#000000" font-family="sans-serif" font-size="11" lengthAdjust="spacing" textLength="68" x="155" y="273.3652">rank: Integer</text><ellipse cx="146" cy="282.6855" rx="3" ry="3" style="stroke:#038048;stroke-width:1.0;fill:none;"/><text fill="#000000" font-family="sans-serif" font-size="11" lengthAdjust="spacing" textLength="74" x="155" y="286.3203">score: Integer</text><line style="stroke:#A80036;stroke-width:1.0;" x1="136" x2="405" y1="292.6406" y2="292.6406"/><ellipse cx="146" cy="303.6406" fill="#84BE84" rx="3" ry="3" style="stroke:#038048;stroke-width:1.0;"/><text fill="#000000" font-family="sans-serif" font-size="11" lengthAdjust="spacing" textLength="193" x="155" y="307.2754">achievements(): List&lt;Achievement&gt;</text><ellipse cx="146" cy="316.5957" fill="#84BE84" rx="3" ry="3" style="stroke:#038048;stroke-width:1.0;"/><text fill="#000000" font-family="sans-serif" font-size="11" lengthAdjust="spacing" textLength="121" x="155" y="320.2305">friends(): List&lt;Player&gt;</text><ellipse cx="146" cy="329.5508" fill="#84BE84" rx="3" ry="3" style="stroke:#038048;stroke-width:1.0;"/><text fill="#000000" font-family="sans-serif" font-size="11" lengthAdjust="spacing" textLength="116" x="155" y="333.1855">games(): List&lt;Game&gt;</text><ellipse cx="146" cy="342.5059" fill="#84BE84" rx="3" ry="3" style="stroke:#038048;stroke-width:1.0;"/><text fill="#000000" font-family="sans-serif" font-size="11" lengthAdjust="spacing" textLength="159" x="155" y="346.1406">gameRequests(): List&lt;Game&gt;</text><ellipse cx="146" cy="355.4609" fill="#84BE84" rx="3" ry="3" style="stroke:#038048;stroke-width:1.0;"/><text fill="#000000" font-family="sans-serif" font-size="11" lengthAdjust="spacing" textLength="182" x="155" y="359.0957">gameRequestsSent(): List&lt;Game&gt;</text><ellipse cx="146" cy="368.416" fill="#84BE84" rx="3" ry="3" style="stroke:#038048;stroke-width:1.0;"/><text fill="#000000" font-family="sans-serif" font-size="11" lengthAdjust="spacing" textLength="166" x="155" y="372.0508">gameInvitations(): List&lt;Game&gt;</text><ellipse cx="146" cy="381.3711" fill="#84BE84" rx="3" ry="3" style="stroke:#038048;stroke-width:1.0;"/><text fill="#000000" font-family="sans-serif" font-size="11" lengthAdjust="spacing" textLength="189" x="155" y="385.0059">gameInvitationsSent(): List&lt;Game&gt;</text><ellipse cx="146" cy="394.3262" fill="#84BE84" rx="3" ry="3" style="stroke:#038048;stroke-width:1.0;"/><text fill="#000000" font-family="sans-serif" font-size="11" lengthAdjust="spacing" textLength="149" x="155" y="397.9609">gameHistory(): List&lt;Game&gt;</text><line style="stroke:#A80036;stroke-width:1.0;" x1="136" x2="405" y1="404.2813" y2="404.2813"/><ellipse cx="146" cy="415.2813" fill="#84BE84" rx="3" ry="3" style="stroke:#038048;stroke-width:1.0;"/><text fill="#000000" font-family="sans-serif" font-size="11" lengthAdjust="spacing" textLength="238" x="155" y="418.916">joinGame(game: Game) -&gt; &lt;Boolean, Error&gt;</text><ellipse cx="146" cy="428.2363" fill="#84BE84" rx="3" ry="3" style="stroke:#038048;stroke-width:1.0;"/><text fill="#000000" font-family="sans-serif" font-size="11" lengthAdjust="spacing" textLength="245" x="155" y="431.8711">leaveGame(game: Game) -&gt; &lt;Boolean, Error&gt;</text><!--MD5=[b6dcce5e5ef3c84b0b048d11301373dd]
class Game--><rect codeLine="30" fill="#FEFECE" filter="url(#fpv03wm8sauoc)" height="177.5508" id="Game" style="stroke:#A80036;stroke-width:1.5;" width="225" x="336" y="498"/><ellipse cx="427.25" cy="514" fill="#ADD1B2" rx="11" ry="11" style="stroke:#A80036;stroke-width:1.0;"/><path d="M429.7231,520.1431 Q429.1421,520.4419 428.5029,520.5913 Q427.8638,520.7407 427.1582,520.7407 Q424.6514,520.7407 423.3315,519.0889 Q422.0117,517.437 422.0117,514.3159 Q422.0117,511.1865 423.3315,509.5347 Q424.6514,507.8828 427.1582,507.8828 Q427.8638,507.8828 428.5112,508.0322 Q429.1587,508.1816 429.7231,508.4805 L429.7231,511.2031 Q429.0923,510.6221 428.4988,510.3523 Q427.9053,510.0825 427.2744,510.0825 Q425.9297,510.0825 425.2449,511.1492 Q424.5601,512.2158 424.5601,514.3159 Q424.5601,516.4077 425.2449,517.4744 Q425.9297,518.541 427.2744,518.541 Q427.9053,518.541 428.4988,518.2712 Q429.0923,518.0015 429.7231,517.4204 Z " fill="#000000"/><text fill="#000000" font-family="sans-serif" font-size="12" lengthAdjust="spacing" textLength="34" x="447.75" y="518.5352">Game</text><line style="stroke:#A80036;stroke-width:1.5;" x1="337" x2="560" y1="530" y2="530"/><text fill="#000000" font-family="sans-serif" font-size="11" lengthAdjust="spacing" textLength="187" x="342" y="544.6348">Game between two or more players</text><text fill="#000000" font-family="sans-serif" font-size="11" lengthAdjust="spacing" textLength="213" x="342" y="557.5898">for a specific sport in a specific location</text><text fill="#000000" font-family="sans-serif" font-size="11" lengthAdjust="spacing" textLength="138" x="342" y="570.5449">at a specific time and date</text><text fill="#000000" font-family="sans-serif" font-size="11" lengthAdjust="spacing" textLength="147" x="342" y="583.5">and with a specific duration</text><line style="stroke:#A80036;stroke-width:1.0;" x1="337" x2="560" y1="589.8203" y2="589.8203"/><ellipse cx="347" cy="600.8203" rx="3" ry="3" style="stroke:#038048;stroke-width:1.0;fill:none;"/><text fill="#000000" font-family="sans-serif" font-size="11" lengthAdjust="spacing" textLength="45" x="356" y="604.4551">hall: Hall</text><ellipse cx="347" cy="613.7754" rx="3" ry="3" style="stroke:#038048;stroke-width:1.0;fill:none;"/><text fill="#000000" font-family="sans-serif" font-size="11" lengthAdjust="spacing" textLength="64" x="356" y="617.4102">sport: Sport</text><ellipse cx="347" cy="626.7305" rx="3" ry="3" style="stroke:#038048;stroke-width:1.0;fill:none;"/><text fill="#000000" font-family="sans-serif" font-size="11" lengthAdjust="spacing" textLength="110" x="356" y="630.3652">started_at: DateTime</text><ellipse cx="347" cy="639.6855" rx="3" ry="3" style="stroke:#038048;stroke-width:1.0;fill:none;"/><text fill="#000000" font-family="sans-serif" font-size="11" lengthAdjust="spacing" textLength="105" x="356" y="643.3203">ended_at: DateTime</text><ellipse cx="347" cy="652.6406" rx="3" ry="3" style="stroke:#038048;stroke-width:1.0;fill:none;"/><text fill="#000000" font-family="sans-serif" font-size="11" lengthAdjust="spacing" textLength="85" x="356" y="656.2754">players: Player[]</text><ellipse cx="347" cy="665.5957" rx="3" ry="3" style="stroke:#038048;stroke-width:1.0;fill:none;"/><text fill="#000000" font-family="sans-serif" font-size="11" lengthAdjust="spacing" textLength="67" x="356" y="669.2305">limit: Integer</text><!--MD5=[9cceea78199e6ad166888528bfc91c0c]
class Hall--><rect codeLine="44" fill="#FEFECE" filter="url(#fpv03wm8sauoc)" height="125.7305" id="Hall" style="stroke:#A80036;stroke-width:1.5;" width="114" x="391.5" y="736"/><ellipse cx="433.5" cy="752" fill="#ADD1B2" rx="11" ry="11" style="stroke:#A80036;stroke-width:1.0;"/><path d="M435.9731,758.1431 Q435.3921,758.4419 434.7529,758.5913 Q434.1138,758.7407 433.4082,758.7407 Q430.9014,758.7407 429.5815,757.0889 Q428.2617,755.437 428.2617,752.3159 Q428.2617,749.1865 429.5815,747.5347 Q430.9014,745.8828 433.4082,745.8828 Q434.1138,745.8828 434.7612,746.0322 Q435.4087,746.1816 435.9731,746.4805 L435.9731,749.2031 Q435.3423,748.6221 434.7488,748.3523 Q434.1553,748.0825 433.5244,748.0825 Q432.1797,748.0825 431.4949,749.1492 Q430.8101,750.2158 430.8101,752.3159 Q430.8101,754.4077 431.4949,755.4744 Q432.1797,756.541 433.5244,756.541 Q434.1553,756.541 434.7488,756.2712 Q435.3423,756.0015 435.9731,755.4204 Z " fill="#000000"/><text fill="#000000" font-family="sans-serif" font-size="12" lengthAdjust="spacing" textLength="22" x="453.5" y="756.5352">Hall</text><line style="stroke:#A80036;stroke-width:1.5;" x1="392.5" x2="504.5" y1="768" y2="768"/><ellipse cx="402.5" cy="779" rx="3" ry="3" style="stroke:#038048;stroke-width:1.0;fill:none;"/><text fill="#000000" font-family="sans-serif" font-size="11" lengthAdjust="spacing" textLength="81" x="411.5" y="782.6348">address: String</text><ellipse cx="402.5" cy="791.9551" rx="3" ry="3" style="stroke:#038048;stroke-width:1.0;fill:none;"/><text fill="#000000" font-family="sans-serif" font-size="11" lengthAdjust="spacing" textLength="88" x="411.5" y="795.5898">capacity: Integer</text><ellipse cx="402.5" cy="804.9102" rx="3" ry="3" style="stroke:#038048;stroke-width:1.0;fill:none;"/><text fill="#000000" font-family="sans-serif" font-size="11" lengthAdjust="spacing" textLength="67" x="411.5" y="808.5449">name: String</text><ellipse cx="402.5" cy="817.8652" rx="3" ry="3" style="stroke:#038048;stroke-width:1.0;fill:none;"/><text fill="#000000" font-family="sans-serif" font-size="11" lengthAdjust="spacing" textLength="72" x="411.5" y="821.5">phone: String</text><ellipse cx="402.5" cy="830.8203" rx="3" ry="3" style="stroke:#038048;stroke-width:1.0;fill:none;"/><text fill="#000000" font-family="sans-serif" font-size="11" lengthAdjust="spacing" textLength="66" x="411.5" y="834.4551">email: String</text><ellipse cx="402.5" cy="843.7754" rx="3" ry="3" style="stroke:#038048;stroke-width:1.0;fill:none;"/><text fill="#000000" font-family="sans-serif" font-size="11" lengthAdjust="spacing" textLength="78" x="411.5" y="847.4102">website: String</text><line style="stroke:#A80036;stroke-width:1.5;" x1="392.5" x2="504.5" y1="853.7305" y2="853.7305"/><!--MD5=[c943b7297f25d0ee4f831707c42d3ae4]
class Organizer--><rect codeLine="53" fill="#FEFECE" filter="url(#fpv03wm8sauoc)" height="125.7305" id="Organizer" style="stroke:#A80036;stroke-width:1.5;" width="376" x="477.5" y="226.5"/><ellipse cx="632.75" cy="242.5" fill="#ADD1B2" rx="11" ry="11" style="stroke:#A80036;stroke-width:1.0;"/><path d="M635.2231,248.6431 Q634.6421,248.9419 634.0029,249.0913 Q633.3638,249.2407 632.6582,249.2407 Q630.1514,249.2407 628.8315,247.5889 Q627.5117,245.937 627.5117,242.8159 Q627.5117,239.6865 628.8315,238.0347 Q630.1514,236.3828 632.6582,236.3828 Q633.3638,236.3828 634.0112,236.5322 Q634.6587,236.6816 635.2231,236.9805 L635.2231,239.7031 Q634.5923,239.1221 633.9988,238.8523 Q633.4053,238.5825 632.7744,238.5825 Q631.4297,238.5825 630.7449,239.6492 Q630.0601,240.7158 630.0601,242.8159 Q630.0601,244.9077 630.7449,245.9744 Q631.4297,247.041 632.7744,247.041 Q633.4053,247.041 633.9988,246.7712 Q634.5923,246.5015 635.2231,245.9204 Z " fill="#000000"/><text fill="#000000" font-family="sans-serif" font-size="12" lengthAdjust="spacing" textLength="57" x="653.25" y="247.0352">Organizer</text><line style="stroke:#A80036;stroke-width:1.5;" x1="478.5" x2="852.5" y1="258.5" y2="258.5"/><ellipse cx="488.5" cy="269.5" rx="3" ry="3" style="stroke:#038048;stroke-width:1.0;fill:none;"/><text fill="#000000" font-family="sans-serif" font-size="11" lengthAdjust="spacing" textLength="67" x="497.5" y="273.1348">name: String</text><ellipse cx="488.5" cy="282.4551" rx="3" ry="3" style="stroke:#038048;stroke-width:1.0;fill:none;"/><text fill="#000000" font-family="sans-serif" font-size="11" lengthAdjust="spacing" textLength="66" x="497.5" y="286.0898">email: String</text><ellipse cx="488.5" cy="295.4102" rx="3" ry="3" style="stroke:#038048;stroke-width:1.0;fill:none;"/><text fill="#000000" font-family="sans-serif" font-size="11" lengthAdjust="spacing" textLength="72" x="497.5" y="299.0449">phone: String</text><ellipse cx="488.5" cy="308.3652" rx="3" ry="3" style="stroke:#038048;stroke-width:1.0;fill:none;"/><text fill="#000000" font-family="sans-serif" font-size="11" lengthAdjust="spacing" textLength="78" x="497.5" y="312">website: String</text><line style="stroke:#A80036;stroke-width:1.5;" x1="478.5" x2="852.5" y1="318.3203" y2="318.3203"/><ellipse cx="488.5" cy="329.3203" fill="#84BE84" rx="3" ry="3" style="stroke:#038048;stroke-width:1.0;"/><text fill="#000000" font-family="sans-serif" font-size="11" lengthAdjust="spacing" textLength="350" x="497.5" y="332.9551">createHall(name, address, capacity, phone, email, website) -&gt; Hall</text><ellipse cx="488.5" cy="342.2754" fill="#84BE84" rx="3" ry="3" style="stroke:#038048;stroke-width:1.0;"/><text fill="#000000" font-family="sans-serif" font-size="11" lengthAdjust="spacing" textLength="171" x="497.5" y="345.9102">createGame(hall: Hall)) -&gt; Game</text><!--MD5=[2cb47ba637a0d19583e6199456f6ad0b]
class Player--><rect codeLine="62" fill="#FEFECE" filter="url(#fpv03wm8sauoc)" height="73.9102" id="Player" style="stroke:#A80036;stroke-width:1.5;" width="144" x="198.5" y="7"/><ellipse cx="248.75" cy="23" fill="#ADD1B2" rx="11" ry="11" style="stroke:#A80036;stroke-width:1.0;"/><path d="M251.2231,29.1431 Q250.6421,29.4419 250.0029,29.5913 Q249.3638,29.7407 248.6582,29.7407 Q246.1514,29.7407 244.8315,28.0889 Q243.5117,26.437 243.5117,23.3159 Q243.5117,20.1865 244.8315,18.5347 Q246.1514,16.8828 248.6582,16.8828 Q249.3638,16.8828 250.0112,17.0322 Q250.6587,17.1816 251.2231,17.4805 L251.2231,20.2031 Q250.5923,19.6221 249.9988,19.3523 Q249.4053,19.0825 248.7744,19.0825 Q247.4297,19.0825 246.7449,20.1492 Q246.0601,21.2158 246.0601,23.3159 Q246.0601,25.4077 246.7449,26.4744 Q247.4297,27.541 248.7744,27.541 Q249.4053,27.541 249.9988,27.2712 Q250.5923,27.0015 251.2231,26.4204 Z " fill="#000000"/><text fill="#000000" font-family="sans-serif" font-size="12" lengthAdjust="spacing" textLength="35" x="269.25" y="27.5352">Player</text><line style="stroke:#A80036;stroke-width:1.5;" x1="199.5" x2="341.5" y1="39" y2="39"/><ellipse cx="209.5" cy="50" rx="3" ry="3" style="stroke:#038048;stroke-width:1.0;fill:none;"/><text fill="#000000" font-family="sans-serif" font-size="11" lengthAdjust="spacing" textLength="118" x="218.5" y="53.6348">profiles: List&lt;Profile&gt;</text><ellipse cx="209.5" cy="62.9551" rx="3" ry="3" style="stroke:#038048;stroke-width:1.0;fill:none;"/><text fill="#000000" font-family="sans-serif" font-size="11" lengthAdjust="spacing" textLength="66" x="218.5" y="66.5898">email: String</text><line style="stroke:#A80036;stroke-width:1.5;" x1="199.5" x2="341.5" y1="72.9102" y2="72.9102"/><!--MD5=[3872340950cf0de540d87239ec404c1f]
class PlayerGames--><rect codeLine="67" fill="#FEFECE" filter="url(#fpv03wm8sauoc)" height="73.9102" id="PlayerGames" style="stroke:#A80036;stroke-width:1.5;" width="133" x="168" y="550"/><ellipse cx="194.7" cy="566" fill="#ADD1B2" rx="11" ry="11" style="stroke:#A80036;stroke-width:1.0;"/><path d="M197.1731,572.1431 Q196.5921,572.4419 195.9529,572.5913 Q195.3138,572.7407 194.6082,572.7407 Q192.1014,572.7407 190.7815,571.0889 Q189.4617,569.437 189.4617,566.3159 Q189.4617,563.1865 190.7815,561.5347 Q192.1014,559.8828 194.6082,559.8828 Q195.3138,559.8828 195.9612,560.0322 Q196.6087,560.1816 197.1731,560.4805 L197.1731,563.2031 Q196.5423,562.6221 195.9488,562.3523 Q195.3553,562.0825 194.7244,562.0825 Q193.3797,562.0825 192.6949,563.1492 Q192.0101,564.2158 192.0101,566.3159 Q192.0101,568.4077 192.6949,569.4744 Q193.3797,570.541 194.7244,570.541 Q195.3553,570.541 195.9488,570.2712 Q196.5423,570.0015 197.1731,569.4204 Z " fill="#000000"/><text fill="#000000" font-family="sans-serif" font-size="12" lengthAdjust="spacing" textLength="75" x="211.3" y="570.5352">PlayerGames</text><line style="stroke:#A80036;stroke-width:1.5;" x1="169" x2="300" y1="582" y2="582"/><ellipse cx="179" cy="593" rx="3" ry="3" style="stroke:#038048;stroke-width:1.0;fill:none;"/><text fill="#000000" font-family="sans-serif" font-size="11" lengthAdjust="spacing" textLength="65" x="188" y="596.6348">game: Game</text><ellipse cx="179" cy="605.9551" rx="3" ry="3" style="stroke:#038048;stroke-width:1.0;fill:none;"/><text fill="#000000" font-family="sans-serif" font-size="11" lengthAdjust="spacing" textLength="107" x="188" y="609.5898">playerProfile: Profile</text><line style="stroke:#A80036;stroke-width:1.5;" x1="169" x2="300" y1="615.9102" y2="615.9102"/><!--MD5=[1bcf9d98424f3de73856d712274a53ad]
class OrganizerGames--><rect codeLine="72" fill="#FEFECE" filter="url(#fpv03wm8sauoc)" height="73.9102" id="OrganizerGames" style="stroke:#A80036;stroke-width:1.5;" width="138" x="596.5" y="550"/><ellipse cx="615.55" cy="566" fill="#ADD1B2" rx="11" ry="11" style="stroke:#A80036;stroke-width:1.0;"/><path d="M618.0231,572.1431 Q617.4421,572.4419 616.8029,572.5913 Q616.1638,572.7407 615.4582,572.7407 Q612.9514,572.7407 611.6315,571.0889 Q610.3117,569.437 610.3117,566.3159 Q610.3117,563.1865 611.6315,561.5347 Q612.9514,559.8828 615.4582,559.8828 Q616.1638,559.8828 616.8112,560.0322 Q617.4587,560.1816 618.0231,560.4805 L618.0231,563.2031 Q617.3923,562.6221 616.7988,562.3523 Q616.2053,562.0825 615.5744,562.0825 Q614.2297,562.0825 613.5449,563.1492 Q612.8601,564.2158 612.8601,566.3159 Q612.8601,568.4077 613.5449,569.4744 Q614.2297,570.541 615.5744,570.541 Q616.2053,570.541 616.7988,570.2712 Q617.3923,570.0015 618.0231,569.4204 Z " fill="#000000"/><text fill="#000000" font-family="sans-serif" font-size="12" lengthAdjust="spacing" textLength="97" x="630.45" y="570.5352">OrganizerGames</text><line style="stroke:#A80036;stroke-width:1.5;" x1="597.5" x2="733.5" y1="582" y2="582"/><ellipse cx="607.5" cy="593" rx="3" ry="3" style="stroke:#038048;stroke-width:1.0;fill:none;"/><text fill="#000000" font-family="sans-serif" font-size="11" lengthAdjust="spacing" textLength="65" x="616.5" y="596.6348">game: Game</text><ellipse cx="607.5" cy="605.9551" rx="3" ry="3" style="stroke:#038048;stroke-width:1.0;fill:none;"/><text fill="#000000" font-family="sans-serif" font-size="11" lengthAdjust="spacing" textLength="112" x="616.5" y="609.5898">organizer: Organizer</text><line style="stroke:#A80036;stroke-width:1.5;" x1="597.5" x2="733.5" y1="615.9102" y2="615.9102"/><!--MD5=[23299bc356fe206ed3408f86c02f0f91]
link Game to Hall--><path codeLine="77" d="M448.5,676.15 C448.5,696.24 448.5,717.17 448.5,735.91 " fill="none" id="Game-Hall" style="stroke:#A80036;stroke-width:1.0;"/><text fill="#000000" font-family="sans-serif" font-size="13" lengthAdjust="spacing" textLength="8" x="440.1938" y="696.1472">u</text><text fill="#000000" font-family="sans-serif" font-size="13" lengthAdjust="spacing" textLength="8" x="440.0375" y="725.3499">1</text><!--MD5=[289d1f175d5c0378f60e8619153c9397]
link Profile to PlayerGames--><path codeLine="79" d="M252.5,438.25 C247.44,479.8 242.38,521.36 238.91,549.77 " fill="none" id="Profile-PlayerGames" style="stroke:#A80036;stroke-width:1.0;"/><text fill="#000000" font-family="sans-serif" font-size="13" lengthAdjust="spacing" textLength="8" x="243.3656" y="458.8781">1</text><text fill="#000000" font-family="sans-serif" font-size="13" lengthAdjust="spacing" textLength="8" x="230.9856" y="539.1282">u</text><!--MD5=[0bdcceae39f9506ffcbdb6980d7c41d4]
link PlayerGames to Game--><path codeLine="80" d="M301.38,587 C312.87,587 324.36,587 335.86,587 " fill="none" id="PlayerGames-Game" style="stroke:#A80036;stroke-width:1.0;"/><text fill="#000000" font-family="sans-serif" font-size="13" lengthAdjust="spacing" textLength="8" x="309.1325" y="583.7699">u</text><text fill="#000000" font-family="sans-serif" font-size="13" lengthAdjust="spacing" textLength="8" x="320.0233" y="584.09">1</text><!--MD5=[10fc589d931f13cc3d21f17326b574d2]
link Organizer to OrganizerGames--><path codeLine="82" d="M665.5,352.81 C665.5,412.58 665.5,500.78 665.5,549.79 " fill="none" id="Organizer-OrganizerGames" style="stroke:#A80036;stroke-width:1.0;"/><text fill="#000000" font-family="sans-serif" font-size="13" lengthAdjust="spacing" textLength="8" x="657.0875" y="372.7106">1</text><text fill="#000000" font-family="sans-serif" font-size="13" lengthAdjust="spacing" textLength="8" x="656.7625" y="539.1519">u</text><!--MD5=[7ed830cd53a7616573b343128b018639]
link Game to OrganizerGames--><path codeLine="83" d="M561.24,587 C572.91,587 584.59,587 596.26,587 " fill="none" id="Game-OrganizerGames" style="stroke:#A80036;stroke-width:1.0;"/><text fill="#000000" font-family="sans-serif" font-size="13" lengthAdjust="spacing" textLength="8" x="569.0835" y="584.09">1</text><text fill="#000000" font-family="sans-serif" font-size="13" lengthAdjust="spacing" textLength="8" x="580.7071" y="583.8156">u</text><!--MD5=[4c4075f3fb46e166495785b35c6e7d6b]
link Player to Profile--><path codeLine="85" d="M270.5,81.19 C270.5,97.82 270.5,118.75 270.5,140.88 " fill="none" id="Player-Profile" style="stroke:#A80036;stroke-width:1.0;"/><text fill="#000000" font-family="sans-serif" font-size="13" lengthAdjust="spacing" textLength="8" x="261.8125" y="101.4739">1</text><text fill="#000000" font-family="sans-serif" font-size="13" lengthAdjust="spacing" textLength="8" x="262.2938" y="130.4015">n</text><!--MD5=[8a1d10e168168ca6a553829abe47bee4]
link Sport to Profile--><path codeLine="86" d="M100.12,289.5 C111.66,289.5 123.19,289.5 134.73,289.5 " fill="none" id="Sport-Profile" style="stroke:#A80036;stroke-width:1.0;"/><text fill="#000000" font-family="sans-serif" font-size="13" lengthAdjust="spacing" textLength="8" x="107.8712" y="285.9471">1</text><text fill="#000000" font-family="sans-serif" font-size="13" lengthAdjust="spacing" textLength="8" x="119.0863" y="286.6615">n</text><!--MD5=[6e84e27fca9a7a3878fa56e174f6d9c8]
link Sport to Game--><path codeLine="87" d="M58.62,320.07 C65.92,353.4 82.53,406.97 117.5,438 C187.24,499.88 234.25,458.07 318.5,498 C324.29,500.74 330.11,503.72 335.91,506.88 " fill="none" id="Sport-Game" style="stroke:#A80036;stroke-width:1.0;"/><text fill="#000000" font-family="sans-serif" font-size="13" lengthAdjust="spacing" textLength="8" x="50.851" y="340.527">1</text><text fill="#000000" font-family="sans-serif" font-size="13" lengthAdjust="spacing" textLength="8" x="320.0766" y="498.5869">n</text><!--MD5=[b92f3466784b514d7392c6816d905121]
@startuml

class Sport {
  +name: String
}

class Profile {
  Profile is a player's profile
  for a specific sport
  - - - -
  +sport: Sport
  +nickname: String
  +avatar: String
  +level: Integer
  +rank: Integer
  +score: Integer
  - - - -
  +achievements(): List<Achievement>
  +friends(): List<Player>
  +games(): List<Game>
  +gameRequests(): List<Game>
  +gameRequestsSent(): List<Game>
  +gameInvitations(): List<Game>
  +gameInvitationsSent(): List<Game>
  +gameHistory(): List<Game>
  - - - -
  +joinGame(game: Game) -> <Boolean, Error>
  +leaveGame(game: Game) -> <Boolean, Error>
}

class Game {
  Game between two or more players
  for a specific sport in a specific location
  at a specific time and date
  and with a specific duration
  - - - -
  +hall: Hall
  +sport: Sport
  +started_at: DateTime
  +ended_at: DateTime
  +players: Player[]
  +limit: Integer
}

class Hall {
  +address: String
  +capacity: Integer
  +name: String
  +phone: String
  +email: String
  +website: String
}

class Organizer {
  +name: String
  +email: String
  +phone: String
  +website: String
  +createHall(name, address, capacity, phone, email, website) -> Hall
  +createGame(hall: Hall)) -> Game
}

class Player {
  +profiles: List<Profile>
  +email: String
}

class PlayerGames {
  +game: Game
  +playerProfile: Profile
}

class OrganizerGames {
  +game: Game
  +organizer: Organizer
}

Game "u" - - "1" Hall

PlayerGames "u" -up- "1" Profile
PlayerGames "u" - "1" Game

OrganizerGames "u" -u- "1" Organizer
OrganizerGames "u" -l- "1" Game

Player "1" - - "n" Profile
Profile "n" -l- "1" Sport
Game "n" -l- "1" Sport

@enduml

PlantUML version 1.2021.9(Sun Jul 25 12:13:56 CEST 2021)
(GPL source distribution)
Java Runtime: OpenJDK Runtime Environment
JVM: OpenJDK 64-Bit Server VM
Default Encoding: UTF-8
Language: en
Country: RU
--></g></svg>